<svg width="162px" height="32px" viewBox="0 0 162 32" fill="none" xmlns="http://www.w3.org/2000/svg" transform="rotate(0) scale(1, 1)">
<path d="M17.961 2.59548L6.93697 13.6195C6.29872 14.2578 5.2074 13.8057 5.2074 12.9031V1.87907C5.2074 1.31951 5.66101 0.865906 6.22056 0.865906H17.2446C18.1472 0.865906 18.5992 1.95722 17.961 2.59548Z" fill="#fba900"/>
<path d="M27.4075 19.6869L16.2601 8.7873C15.6108 8.15242 16.0603 7.04973 16.9684 7.04973L28.1158 7.04973C28.6753 7.04973 29.129 7.50334 29.129 8.06289V18.9625C29.129 19.8597 28.0489 20.3142 27.4075 19.6869Z" fill="#fba900"/>
<path d="M10.8425 29.4045L22.192 18.055C22.8302 17.4168 23.9216 17.8688 23.9216 18.7714L23.9216 30.1209C23.9216 30.6805 23.468 31.1341 22.9084 31.1341H11.5589C10.6563 31.1341 10.2042 30.0428 10.8425 29.4045Z" fill="#fba900"/>
<path d="M1.72957 12.5221L12.7536 23.5462C13.3919 24.1844 12.9398 25.2757 12.0372 25.2757H1.01316C0.453608 25.2757 5.06334e-07 24.8221 4.81875e-07 24.2626L0 13.2386C-3.94552e-08 12.3359 1.09132 11.8839 1.72957 12.5221Z" fill="#fba900"/>
<path d="M46.5848 0C48.5353 0 50.2738 0.26087 51.8003 0.782609C53.3268 1.27536 54.5989 2 55.6166 2.95652C56.6625 3.88406 57.4541 5.01449 57.9912 6.34783C58.5283 7.65218 58.7968 9.13044 58.7968 10.7826C58.7968 12.087 58.5989 13.3913 58.2032 14.6957C57.8357 16 57.2138 17.1884 56.3375 18.2609C55.4894 19.3333 54.3587 20.2029 52.9452 20.8696C51.5318 21.5072 49.7791 21.8261 47.6873 21.8261H43.2774V32H37.129V0H46.5848ZM47.6449 15.7391C48.5777 15.7391 49.3551 15.5797 49.977 15.2609C50.5989 14.942 51.0795 14.5362 51.4187 14.0435C51.7862 13.5507 52.0406 13.0435 52.182 12.5217C52.3516 11.971 52.4364 11.4638 52.4364 11C52.4364 10.6522 52.3799 10.2174 52.2668 9.69565C52.182 9.14493 51.9841 8.59421 51.6731 8.04348C51.3622 7.49275 50.8816 7.02899 50.2314 6.65218C49.6095 6.27536 48.7615 6.08696 47.6873 6.08696H43.2774V15.7391H47.6449ZM53.4117 19.6522L61.129 32H53.9629L46.076 19.8261L53.4117 19.6522Z" fill="#ffffff"/>
<path d="M71.2176 32C69.5191 32 68.0941 31.476 66.9426 30.4279C65.7911 29.3508 65.1865 27.968 65.129 26.2795V12H71.1744V24.0087C71.232 24.853 71.4479 25.5371 71.8221 26.0611C72.1964 26.556 72.8297 26.8035 73.7222 26.8035C74.6146 26.8035 75.3775 26.4978 76.0108 25.8865C76.6729 25.2751 77.1767 24.4454 77.5222 23.3974C77.8964 22.3202 78.0835 21.1121 78.0835 19.7729V12H84.129V31.083H78.6449L78.1699 27.5895L78.2562 27.9825C77.8244 28.7686 77.2775 29.4673 76.6153 30.0786C75.9532 30.69 75.1615 31.1558 74.2403 31.476C73.3479 31.8253 72.3403 32 71.2176 32Z" fill="#ffffff"/>
<path d="M100.971 32C99.3306 32 97.9435 31.7461 96.8099 31.2383C95.7061 30.7023 94.7366 30.0112 93.9013 29.1649L94.3936 27.8954V31.4922H88.129V0H94.3488V16.174V14.2698C95.1244 13.6492 96.1536 13.1273 97.4364 12.7041C98.7191 12.281 100.181 12.0694 101.822 12.0694C103.522 12.0694 105.073 12.4502 106.475 13.2119C107.877 13.9736 108.996 15.0879 109.831 16.5548C110.696 17.9936 111.129 19.7567 111.129 21.8443C111.129 23.9318 110.652 25.7373 109.697 27.2607C108.772 28.784 107.534 29.9547 105.983 30.7728C104.432 31.5909 102.761 32 100.971 32ZM99.5842 27.0068C100.509 27.0068 101.359 26.7811 102.135 26.3297C102.94 25.8784 103.582 25.2577 104.059 24.4678C104.536 23.6779 104.775 22.7893 104.775 21.802C104.775 20.8146 104.536 19.9401 104.059 19.1784C103.582 18.4167 102.94 17.8243 102.135 17.4011C101.359 16.9498 100.509 16.7241 99.5842 16.7241C98.7788 16.7241 98.0181 16.851 97.3021 17.1049C96.616 17.3306 96.0194 17.6691 95.5122 18.1205C95.0349 18.5437 94.662 19.0656 94.3936 19.6862V24.2139C94.7515 24.8346 95.1692 25.3565 95.6465 25.7796C96.1536 26.1746 96.7353 26.4849 97.3916 26.7106C98.0479 26.908 98.7788 27.0068 99.5842 27.0068Z" fill="#ffffff"/>
<path d="M115.267 12.8854H121.714V32H115.267V12.8854ZM115.129 6.10558C115.129 5.20161 115.497 4.45802 116.234 3.87481C117.002 3.2916 117.815 3 118.675 3C119.535 3 120.318 3.2916 121.024 3.87481C121.761 4.45802 122.129 5.20161 122.129 6.10558C122.129 7.00955 121.761 7.75314 121.024 8.33635C120.318 8.8904 119.535 9.16742 118.675 9.16742C117.815 9.16742 117.002 8.8904 116.234 8.33635C115.497 7.75314 115.129 7.00955 115.129 6.10558Z" fill="#ffffff"/>
<path d="M143.953 29.7874C143.102 30.4526 142.031 30.9877 140.74 31.3926C139.479 31.7975 138.232 32 136.999 32C134.799 32 132.877 31.6095 131.234 30.8286C129.62 30.0188 128.359 28.8764 127.449 27.4013C126.569 25.8973 126.129 24.0897 126.129 21.9783C126.129 19.867 126.613 18.0738 127.581 16.5987C128.55 15.0947 129.811 13.9523 131.366 13.1714C132.95 12.3905 134.608 12 136.339 12C138.07 12 139.567 12.2314 140.828 12.6941C142.119 13.1569 143.219 13.7643 144.129 14.5163L141.136 18.4208C140.726 18.1027 140.153 17.7845 139.42 17.4664C138.716 17.1193 137.88 16.9458 136.911 16.9458C136.061 16.9458 135.283 17.1627 134.579 17.5965C133.875 18.0304 133.317 18.6233 132.906 19.3753C132.496 20.1273 132.29 20.9949 132.29 21.9783C132.29 22.9038 132.51 23.757 132.95 24.538C133.391 25.3189 133.992 25.9407 134.755 26.4035C135.547 26.8373 136.471 27.0542 137.528 27.0542C138.202 27.0542 138.818 26.9675 139.376 26.7939C139.963 26.5915 140.461 26.3167 140.872 25.9696L143.953 29.7874Z" fill="#ffffff"/>
<path d="M153.535 12.9586L154.093 18.1874L153.964 17.4031C154.507 16.2702 155.251 15.3115 156.195 14.5272C157.139 13.7139 158.068 13.0893 158.984 12.6536C159.928 12.2179 160.643 12 161.129 12L160.829 18.1002C159.427 17.9259 158.226 18.1583 157.225 18.7974C156.224 19.4365 155.451 20.2789 154.908 21.3246C154.364 22.3704 154.093 23.4452 154.093 24.549V32H148.129V12.9586H153.535Z" fill="#ffffff"/>
</svg>